<mxfile host="65bd71144e">
    <diagram id="zpnLmlHm_INqMgbPzsTU" name="Страница 1">
        <mxGraphModel dx="1924" dy="707" grid="1" gridSize="10" guides="1" tooltips="1" connect="1" arrows="1" fold="1" page="1" pageScale="1" pageWidth="827" pageHeight="1169" math="0" shadow="0">
            <root>
                <mxCell id="0"/>
                <mxCell id="1" parent="0"/>
                <mxCell id="10" value="Typical Diagram" style="swimlane;startSize=20;horizontal=1;containerType=tree;newEdgeStyle={&quot;edgeStyle&quot;:&quot;elbowEdgeStyle&quot;,&quot;startArrow&quot;:&quot;none&quot;,&quot;endArrow&quot;:&quot;none&quot;};fillColor=#3333FF;strokeColor=#FFFFFF;fontColor=#ffffff;swimlaneFillColor=#999999;swimlaneLine=0;rounded=1;gradientColor=none;" vertex="1" parent="1">
                    <mxGeometry x="-113" y="40" width="933" height="640" as="geometry"/>
                </mxCell>
                <mxCell id="11" value="" style="edgeStyle=elbowEdgeStyle;elbow=vertical;sourcePerimeterSpacing=0;targetPerimeterSpacing=0;startArrow=none;endArrow=none;rounded=0;curved=0;fillColor=#1ba1e2;strokeColor=#006EAF;" edge="1" parent="10" source="13" target="14">
                    <mxGeometry relative="1" as="geometry"/>
                </mxCell>
                <mxCell id="12" value="" style="edgeStyle=elbowEdgeStyle;elbow=vertical;sourcePerimeterSpacing=0;targetPerimeterSpacing=0;startArrow=none;endArrow=none;rounded=0;curved=0;fillColor=#1ba1e2;strokeColor=#006EAF;" edge="1" parent="10" source="13" target="15">
                    <mxGeometry relative="1" as="geometry"/>
                </mxCell>
                <UserObject label="&lt;span style=&quot;font-weight: 700;&quot;&gt;Typical Diagram Moduled Framework&lt;/span&gt;" treeRoot="1" id="13">
                    <mxCell style="whiteSpace=wrap;html=1;align=center;treeFolding=1;treeMoving=1;newEdgeStyle={&quot;edgeStyle&quot;:&quot;elbowEdgeStyle&quot;,&quot;startArrow&quot;:&quot;none&quot;,&quot;endArrow&quot;:&quot;none&quot;};rounded=1;glass=1;shadow=0;fillColor=#0050ef;strokeColor=#001DBC;fontColor=#ffffff;gradientColor=none;" vertex="1" parent="10">
                        <mxGeometry x="359" y="50" width="250" height="60" as="geometry"/>
                    </mxCell>
                </UserObject>
                <mxCell id="14" value="Config Files" style="whiteSpace=wrap;html=1;align=center;verticalAlign=middle;treeFolding=1;treeMoving=1;newEdgeStyle={&quot;edgeStyle&quot;:&quot;elbowEdgeStyle&quot;,&quot;startArrow&quot;:&quot;none&quot;,&quot;endArrow&quot;:&quot;none&quot;};fillColor=#0066CC;strokeColor=#001DBC;fontColor=#ffffff;rounded=1;" vertex="1" parent="10">
                    <mxGeometry x="90" y="150" width="100" height="60" as="geometry"/>
                </mxCell>
                <mxCell id="15" value="Modules" style="whiteSpace=wrap;html=1;align=center;verticalAlign=middle;treeFolding=1;treeMoving=1;newEdgeStyle={&quot;edgeStyle&quot;:&quot;elbowEdgeStyle&quot;,&quot;startArrow&quot;:&quot;none&quot;,&quot;endArrow&quot;:&quot;none&quot;};fillColor=#0066CC;strokeColor=#001DBC;fontColor=#ffffff;rounded=1;" vertex="1" parent="10">
                    <mxGeometry x="434" y="150" width="100" height="60" as="geometry"/>
                </mxCell>
                <mxCell id="18" value="" style="edgeStyle=elbowEdgeStyle;elbow=vertical;sourcePerimeterSpacing=0;targetPerimeterSpacing=0;startArrow=none;endArrow=none;rounded=0;curved=0;fillColor=#1ba1e2;strokeColor=#006EAF;" edge="1" target="19" source="13" parent="10">
                    <mxGeometry relative="1" as="geometry">
                        <mxPoint x="414" y="150" as="sourcePoint"/>
                    </mxGeometry>
                </mxCell>
                <mxCell id="19" value="Tests" style="whiteSpace=wrap;html=1;align=center;verticalAlign=middle;treeFolding=1;treeMoving=1;newEdgeStyle={&quot;edgeStyle&quot;:&quot;elbowEdgeStyle&quot;,&quot;startArrow&quot;:&quot;none&quot;,&quot;endArrow&quot;:&quot;none&quot;};fillColor=#0066CC;strokeColor=#001DBC;fontColor=#ffffff;rounded=1;" vertex="1" parent="10">
                    <mxGeometry x="743" y="150" width="100" height="60" as="geometry"/>
                </mxCell>
                <mxCell id="22" value="" style="edgeStyle=elbowEdgeStyle;elbow=vertical;sourcePerimeterSpacing=0;targetPerimeterSpacing=0;startArrow=none;endArrow=none;rounded=0;curved=0;fillColor=#1ba1e2;strokeColor=#006EAF;" edge="1" target="23" source="14" parent="10">
                    <mxGeometry relative="1" as="geometry">
                        <mxPoint x="414" y="150" as="sourcePoint"/>
                    </mxGeometry>
                </mxCell>
                <mxCell id="23" value="Framework's" style="whiteSpace=wrap;html=1;align=center;verticalAlign=middle;treeFolding=1;treeMoving=1;newEdgeStyle={&quot;edgeStyle&quot;:&quot;elbowEdgeStyle&quot;,&quot;startArrow&quot;:&quot;none&quot;,&quot;endArrow&quot;:&quot;none&quot;};fillColor=#1D73E2;strokeColor=#006EAF;fontColor=#ffffff;rounded=1;" vertex="1" parent="10">
                    <mxGeometry x="23" y="260" width="100" height="60" as="geometry"/>
                </mxCell>
                <mxCell id="24" value="" style="edgeStyle=elbowEdgeStyle;elbow=vertical;sourcePerimeterSpacing=0;targetPerimeterSpacing=0;startArrow=none;endArrow=none;rounded=0;curved=0;fillColor=#1ba1e2;strokeColor=#006EAF;" edge="1" target="25" source="14" parent="10">
                    <mxGeometry relative="1" as="geometry">
                        <mxPoint x="411" y="150" as="sourcePoint"/>
                    </mxGeometry>
                </mxCell>
                <mxCell id="25" value="Project's" style="whiteSpace=wrap;html=1;align=center;verticalAlign=middle;treeFolding=1;treeMoving=1;newEdgeStyle={&quot;edgeStyle&quot;:&quot;elbowEdgeStyle&quot;,&quot;startArrow&quot;:&quot;none&quot;,&quot;endArrow&quot;:&quot;none&quot;};fillColor=#1D73E2;strokeColor=#006EAF;fontColor=#ffffff;rounded=1;" vertex="1" parent="10">
                    <mxGeometry x="140" y="260" width="100" height="60" as="geometry"/>
                </mxCell>
                <mxCell id="28" value="" style="edgeStyle=elbowEdgeStyle;elbow=vertical;sourcePerimeterSpacing=0;targetPerimeterSpacing=0;startArrow=none;endArrow=none;rounded=0;curved=0;fillColor=#1ba1e2;strokeColor=#006EAF;" edge="1" target="29" source="25" parent="10">
                    <mxGeometry relative="1" as="geometry">
                        <mxPoint x="137" y="250" as="sourcePoint"/>
                    </mxGeometry>
                </mxCell>
                <mxCell id="29" value="Dev Env" style="whiteSpace=wrap;html=1;align=center;verticalAlign=middle;treeFolding=1;treeMoving=1;newEdgeStyle={&quot;edgeStyle&quot;:&quot;elbowEdgeStyle&quot;,&quot;startArrow&quot;:&quot;none&quot;,&quot;endArrow&quot;:&quot;none&quot;};rounded=1;fillColor=#1ba1e2;strokeColor=#006EAF;fontColor=#ffffff;opacity=70;" vertex="1" parent="10">
                    <mxGeometry x="110" y="360" width="100" height="60" as="geometry"/>
                </mxCell>
                <mxCell id="31" value="" style="edgeStyle=elbowEdgeStyle;elbow=vertical;sourcePerimeterSpacing=0;targetPerimeterSpacing=0;startArrow=none;endArrow=none;rounded=0;curved=0;fillColor=#1ba1e2;strokeColor=#006EAF;" edge="1" target="32" source="29" parent="10">
                    <mxGeometry relative="1" as="geometry">
                        <mxPoint x="200" y="360" as="sourcePoint"/>
                    </mxGeometry>
                </mxCell>
                <mxCell id="32" value="Testing Env" style="whiteSpace=wrap;html=1;align=center;verticalAlign=middle;treeFolding=1;treeMoving=1;newEdgeStyle={&quot;edgeStyle&quot;:&quot;elbowEdgeStyle&quot;,&quot;startArrow&quot;:&quot;none&quot;,&quot;endArrow&quot;:&quot;none&quot;};rounded=1;fillColor=#1ba1e2;strokeColor=#006EAF;fontColor=#ffffff;opacity=70;" vertex="1" parent="10">
                    <mxGeometry x="110" y="460" width="100" height="60" as="geometry"/>
                </mxCell>
                <mxCell id="33" value="" style="edgeStyle=elbowEdgeStyle;elbow=vertical;sourcePerimeterSpacing=0;targetPerimeterSpacing=0;startArrow=none;endArrow=none;rounded=0;curved=0;fillColor=#1ba1e2;strokeColor=#006EAF;" edge="1" target="34" source="32" parent="10">
                    <mxGeometry relative="1" as="geometry">
                        <mxPoint x="200" y="460" as="sourcePoint"/>
                    </mxGeometry>
                </mxCell>
                <mxCell id="34" value="Production Env" style="whiteSpace=wrap;html=1;align=center;verticalAlign=middle;treeFolding=1;treeMoving=1;newEdgeStyle={&quot;edgeStyle&quot;:&quot;elbowEdgeStyle&quot;,&quot;startArrow&quot;:&quot;none&quot;,&quot;endArrow&quot;:&quot;none&quot;};rounded=1;fillColor=#1ba1e2;strokeColor=#006EAF;fontColor=#ffffff;opacity=70;" vertex="1" parent="10">
                    <mxGeometry x="110" y="560" width="100" height="60" as="geometry"/>
                </mxCell>
                <mxCell id="35" value="" style="edgeStyle=elbowEdgeStyle;elbow=vertical;sourcePerimeterSpacing=0;targetPerimeterSpacing=0;startArrow=none;endArrow=none;rounded=0;curved=0;fillColor=#1ba1e2;strokeColor=#006EAF;" edge="1" target="36" source="15" parent="10">
                    <mxGeometry relative="1" as="geometry">
                        <mxPoint x="411" y="150" as="sourcePoint"/>
                    </mxGeometry>
                </mxCell>
                <mxCell id="36" value="Project's" style="whiteSpace=wrap;html=1;align=center;verticalAlign=middle;treeFolding=1;treeMoving=1;newEdgeStyle={&quot;edgeStyle&quot;:&quot;elbowEdgeStyle&quot;,&quot;startArrow&quot;:&quot;none&quot;,&quot;endArrow&quot;:&quot;none&quot;};fillColor=#1D73E2;strokeColor=#006EAF;fontColor=#ffffff;rounded=1;" vertex="1" parent="10">
                    <mxGeometry x="343" y="260" width="100" height="60" as="geometry"/>
                </mxCell>
                <mxCell id="37" value="" style="edgeStyle=elbowEdgeStyle;elbow=vertical;sourcePerimeterSpacing=0;targetPerimeterSpacing=0;startArrow=none;endArrow=none;rounded=0;curved=0;fillColor=#1ba1e2;strokeColor=#006EAF;" edge="1" target="38" source="15" parent="10">
                    <mxGeometry relative="1" as="geometry">
                        <mxPoint x="411" y="150" as="sourcePoint"/>
                    </mxGeometry>
                </mxCell>
                <mxCell id="38" value="General" style="whiteSpace=wrap;html=1;align=center;verticalAlign=middle;treeFolding=1;treeMoving=1;newEdgeStyle={&quot;edgeStyle&quot;:&quot;elbowEdgeStyle&quot;,&quot;startArrow&quot;:&quot;none&quot;,&quot;endArrow&quot;:&quot;none&quot;};fillColor=#1D73E2;strokeColor=#006EAF;fontColor=#ffffff;rounded=1;" vertex="1" parent="10">
                    <mxGeometry x="544" y="260" width="100" height="60" as="geometry"/>
                </mxCell>
                <mxCell id="39" value="" style="edgeStyle=elbowEdgeStyle;elbow=vertical;sourcePerimeterSpacing=0;targetPerimeterSpacing=0;startArrow=none;endArrow=none;rounded=0;curved=0;fillColor=#1ba1e2;strokeColor=#006EAF;" edge="1" target="40" source="38" parent="10">
                    <mxGeometry relative="1" as="geometry">
                        <mxPoint x="411" y="250" as="sourcePoint"/>
                    </mxGeometry>
                </mxCell>
                <mxCell id="40" value="Data&lt;br&gt;Generatiors" style="whiteSpace=wrap;html=1;align=center;verticalAlign=middle;treeFolding=1;treeMoving=1;newEdgeStyle={&quot;edgeStyle&quot;:&quot;elbowEdgeStyle&quot;,&quot;startArrow&quot;:&quot;none&quot;,&quot;endArrow&quot;:&quot;none&quot;};rounded=1;fillColor=#1ba1e2;strokeColor=#006EAF;fontColor=#ffffff;opacity=70;" vertex="1" parent="10">
                    <mxGeometry x="544" y="360" width="100" height="60" as="geometry"/>
                </mxCell>
                <mxCell id="41" value="" style="edgeStyle=elbowEdgeStyle;elbow=vertical;sourcePerimeterSpacing=0;targetPerimeterSpacing=0;startArrow=none;endArrow=none;rounded=0;curved=0;fillColor=#1ba1e2;strokeColor=#006EAF;" edge="1" target="42" source="40" parent="10">
                    <mxGeometry relative="1" as="geometry">
                        <mxPoint x="511" y="360" as="sourcePoint"/>
                    </mxGeometry>
                </mxCell>
                <mxCell id="42" value="Manipulations&lt;br&gt;of Files" style="whiteSpace=wrap;html=1;align=center;verticalAlign=middle;treeFolding=1;treeMoving=1;newEdgeStyle={&quot;edgeStyle&quot;:&quot;elbowEdgeStyle&quot;,&quot;startArrow&quot;:&quot;none&quot;,&quot;endArrow&quot;:&quot;none&quot;};rounded=1;fillColor=#1ba1e2;strokeColor=#006EAF;fontColor=#ffffff;opacity=70;" vertex="1" parent="10">
                    <mxGeometry x="544" y="460" width="100" height="60" as="geometry"/>
                </mxCell>
                <mxCell id="43" value="" style="edgeStyle=elbowEdgeStyle;elbow=vertical;sourcePerimeterSpacing=0;targetPerimeterSpacing=0;startArrow=none;endArrow=none;rounded=0;curved=0;fillColor=#1ba1e2;strokeColor=#006EAF;" edge="1" target="44" source="42" parent="10">
                    <mxGeometry relative="1" as="geometry">
                        <mxPoint x="511" y="460" as="sourcePoint"/>
                    </mxGeometry>
                </mxCell>
                <mxCell id="44" value="Logging" style="whiteSpace=wrap;html=1;align=center;verticalAlign=middle;treeFolding=1;treeMoving=1;newEdgeStyle={&quot;edgeStyle&quot;:&quot;elbowEdgeStyle&quot;,&quot;startArrow&quot;:&quot;none&quot;,&quot;endArrow&quot;:&quot;none&quot;};rounded=1;fillColor=#1ba1e2;strokeColor=#006EAF;fontColor=#ffffff;opacity=70;" vertex="1" parent="10">
                    <mxGeometry x="544" y="560" width="100" height="60" as="geometry"/>
                </mxCell>
                <mxCell id="45" value="" style="edgeStyle=elbowEdgeStyle;elbow=vertical;sourcePerimeterSpacing=0;targetPerimeterSpacing=0;startArrow=none;endArrow=none;rounded=0;curved=0;fillColor=#1ba1e2;strokeColor=#006EAF;" edge="1" target="46" source="36" parent="10">
                    <mxGeometry relative="1" as="geometry">
                        <mxPoint x="411" y="250" as="sourcePoint"/>
                    </mxGeometry>
                </mxCell>
                <mxCell id="46" value="UI &lt;br&gt;testing" style="whiteSpace=wrap;html=1;align=center;verticalAlign=middle;treeFolding=1;treeMoving=1;newEdgeStyle={&quot;edgeStyle&quot;:&quot;elbowEdgeStyle&quot;,&quot;startArrow&quot;:&quot;none&quot;,&quot;endArrow&quot;:&quot;none&quot;};rounded=1;fillColor=#1ba1e2;strokeColor=#006EAF;fontColor=#ffffff;opacity=70;" vertex="1" parent="10">
                    <mxGeometry x="253" y="360" width="100" height="60" as="geometry"/>
                </mxCell>
                <mxCell id="47" value="" style="edgeStyle=elbowEdgeStyle;elbow=vertical;sourcePerimeterSpacing=0;targetPerimeterSpacing=0;startArrow=none;endArrow=none;rounded=0;curved=0;fillColor=#1ba1e2;strokeColor=#006EAF;" edge="1" target="48" source="36" parent="10">
                    <mxGeometry relative="1" as="geometry">
                        <mxPoint x="330" y="360" as="sourcePoint"/>
                    </mxGeometry>
                </mxCell>
                <mxCell id="48" value="API &lt;br&gt;testing" style="whiteSpace=wrap;html=1;align=center;verticalAlign=middle;treeFolding=1;treeMoving=1;newEdgeStyle={&quot;edgeStyle&quot;:&quot;elbowEdgeStyle&quot;,&quot;startArrow&quot;:&quot;none&quot;,&quot;endArrow&quot;:&quot;none&quot;};rounded=1;fillColor=#1ba1e2;strokeColor=#006EAF;fontColor=#ffffff;opacity=70;" vertex="1" parent="10">
                    <mxGeometry x="413" y="360" width="100" height="60" as="geometry"/>
                </mxCell>
                <mxCell id="49" value="" style="edgeStyle=elbowEdgeStyle;elbow=vertical;sourcePerimeterSpacing=0;targetPerimeterSpacing=0;startArrow=none;endArrow=none;rounded=0;curved=0;fillColor=#1ba1e2;strokeColor=#006EAF;" edge="1" target="50" source="46" parent="10">
                    <mxGeometry relative="1" as="geometry">
                        <mxPoint x="360" y="360" as="sourcePoint"/>
                    </mxGeometry>
                </mxCell>
                <mxCell id="50" value="Pages" style="whiteSpace=wrap;html=1;align=center;verticalAlign=middle;treeFolding=1;treeMoving=1;newEdgeStyle={&quot;edgeStyle&quot;:&quot;elbowEdgeStyle&quot;,&quot;startArrow&quot;:&quot;none&quot;,&quot;endArrow&quot;:&quot;none&quot;};rounded=1;fillColor=#1ba1e2;strokeColor=#006EAF;fontColor=#ffffff;opacity=70;" vertex="1" parent="10">
                    <mxGeometry x="253" y="460" width="100" height="60" as="geometry"/>
                </mxCell>
                <mxCell id="53" value="" style="edgeStyle=elbowEdgeStyle;elbow=vertical;sourcePerimeterSpacing=0;targetPerimeterSpacing=0;startArrow=none;endArrow=none;rounded=0;curved=0;fillColor=#1ba1e2;strokeColor=#006EAF;" edge="1" target="54" source="48" parent="10">
                    <mxGeometry relative="1" as="geometry">
                        <mxPoint x="360" y="360" as="sourcePoint"/>
                    </mxGeometry>
                </mxCell>
                <mxCell id="54" value="API &lt;br&gt;clients" style="whiteSpace=wrap;html=1;align=center;verticalAlign=middle;treeFolding=1;treeMoving=1;newEdgeStyle={&quot;edgeStyle&quot;:&quot;elbowEdgeStyle&quot;,&quot;startArrow&quot;:&quot;none&quot;,&quot;endArrow&quot;:&quot;none&quot;};rounded=1;fillColor=#1ba1e2;strokeColor=#006EAF;fontColor=#ffffff;opacity=70;" vertex="1" parent="10">
                    <mxGeometry x="413" y="460" width="100" height="60" as="geometry"/>
                </mxCell>
                <mxCell id="55" value="" style="edgeStyle=elbowEdgeStyle;elbow=vertical;sourcePerimeterSpacing=0;targetPerimeterSpacing=0;startArrow=none;endArrow=none;rounded=0;curved=0;fillColor=#1ba1e2;strokeColor=#006EAF;" edge="1" target="56" source="19" parent="10">
                    <mxGeometry relative="1" as="geometry">
                        <mxPoint x="404" y="150" as="sourcePoint"/>
                    </mxGeometry>
                </mxCell>
                <mxCell id="56" value="UI &lt;br&gt;Tests" style="whiteSpace=wrap;html=1;align=center;verticalAlign=middle;treeFolding=1;treeMoving=1;newEdgeStyle={&quot;edgeStyle&quot;:&quot;elbowEdgeStyle&quot;,&quot;startArrow&quot;:&quot;none&quot;,&quot;endArrow&quot;:&quot;none&quot;};fillColor=#1D73E2;strokeColor=#006EAF;fontColor=#ffffff;rounded=1;" vertex="1" parent="10">
                    <mxGeometry x="683" y="260" width="100" height="60" as="geometry"/>
                </mxCell>
                <mxCell id="57" value="" style="edgeStyle=elbowEdgeStyle;elbow=vertical;sourcePerimeterSpacing=0;targetPerimeterSpacing=0;startArrow=none;endArrow=none;rounded=0;curved=0;fillColor=#1ba1e2;strokeColor=#006EAF;" edge="1" target="58" source="19" parent="10">
                    <mxGeometry relative="1" as="geometry">
                        <mxPoint x="404" y="150" as="sourcePoint"/>
                    </mxGeometry>
                </mxCell>
                <mxCell id="58" value="API &lt;br&gt;Tests" style="whiteSpace=wrap;html=1;align=center;verticalAlign=middle;treeFolding=1;treeMoving=1;newEdgeStyle={&quot;edgeStyle&quot;:&quot;elbowEdgeStyle&quot;,&quot;startArrow&quot;:&quot;none&quot;,&quot;endArrow&quot;:&quot;none&quot;};fillColor=#1D73E2;strokeColor=#006EAF;fontColor=#ffffff;rounded=1;" vertex="1" parent="10">
                    <mxGeometry x="813" y="260" width="100" height="60" as="geometry"/>
                </mxCell>
            </root>
        </mxGraphModel>
    </diagram>
</mxfile>